<svg width="30" height="30" viewBox="0 0 30 30" fill="none" xmlns="http://www.w3.org/2000/svg">
<g clip-path="url(#clip0_3849_5623)">
<path d="M26.175 4.81872L27.6844 3.30934C28.1344 2.85934 27.9 2.08122 27.2719 1.94997L20.2032 0.534344C19.6407 0.421844 19.1438 0.918719 19.2563 1.48122L20.6719 8.54997C20.7938 9.17809 21.5719 9.41247 22.0313 8.96247L23.4844 7.50934C27.2907 11.9062 27.1125 18.5906 22.9313 22.7625C21.3188 24.375 19.2844 25.4437 17.0719 25.8562C16.125 26.0343 15.4219 26.8312 15.45 27.7968C15.4875 28.9593 16.5657 29.8031 17.7094 29.5968C20.6907 29.0531 23.4375 27.6187 25.6125 25.4437C31.275 19.7812 31.4438 10.7062 26.1657 4.80934H26.175V4.81872Z" fill="url(#paint0_linear_3849_5623)"/>
<path d="M6.52485 22.1532C2.7186 17.7563 2.88735 11.0626 7.0686 6.89068C8.69048 5.2688 10.753 4.19068 12.9842 3.78755C13.9311 3.60943 14.6342 2.81255 14.6061 1.8563C14.5686 0.684426 13.4999 -0.168699 12.3561 0.0375507C9.34673 0.571926 6.5811 2.01568 4.38735 4.20005C-1.27515 9.86255 -1.4439 18.9469 3.8436 24.8438L2.33423 26.3532C1.88423 26.8032 2.1186 27.5813 2.74673 27.7126L9.81548 29.1282C10.378 29.2407 10.8749 28.7438 10.7624 28.1813L9.34673 21.1126C9.22485 20.4844 8.44673 20.2501 7.98735 20.7001L6.5436 22.1532H6.53423H6.52485Z" fill="url(#paint1_linear_3849_5623)"/>
</g>
<defs>
<linearGradient id="paint0_linear_3849_5623" x1="22.725" y1="29.4468" x2="22.725" y2="1.58434" gradientUnits="userSpaceOnUse">
<stop stop-color="#A96FFF"/>
<stop offset="1" stop-color="#DCA1FF"/>
</linearGradient>
<linearGradient id="paint1_linear_3849_5623" x1="7.30298" y1="29.4282" x2="7.30298" y2="1.5563" gradientUnits="userSpaceOnUse">
<stop stop-color="#A96FFF"/>
<stop offset="1" stop-color="#DCA1FF"/>
</linearGradient>
<clipPath id="clip0_3849_5623">
<rect width="30" height="30" fill="white"/>
</clipPath>
</defs>
</svg>
