<svg preserveAspectRatio="xMidYMid meet" width="127.4" height="163.799" overflow="visible" style="display: block;" viewBox="0 0 127.4 163.799" fill="none" xmlns="http://www.w3.org/2000/svg">
<g id="Group 1171275810">
<path id="Vector" opacity="0.2" d="M60.4396 163.798C88.8521 163.798 111.885 161.092 111.885 157.753C111.885 154.413 88.8521 151.707 60.4396 151.707C32.0271 151.707 8.99428 154.413 8.99428 157.753C8.99428 161.092 32.0271 163.798 60.4396 163.798Z" fill="url(#paint0_radial_0_4)"/>
<path id="Vector_2" d="M57.0184 145.397C58.7313 146.14 60.6625 146.14 62.3754 145.397C74.5393 140.12 123.786 116.022 119.078 73.4922C116.655 51.6107 99.9008 40.6715 83.6486 40.6715C72.0845 40.6715 63.6291 47.6036 60.7618 50.3177C60.1562 50.891 59.2378 50.891 58.6322 50.3177C55.7647 47.6036 47.3093 40.6715 35.7455 40.6715C19.4932 40.6715 2.73857 51.6107 0.316332 73.4922C-4.39169 116.021 44.8545 140.12 57.0184 145.397Z" fill="url(#paint1_linear_0_4)"/>
<path id="Vector_3" d="M57.0184 145.396C57.8747 145.768 58.7859 145.954 59.6969 145.954C60.6079 145.954 67.704 145.954 67.704 145.954C79.8679 140.677 123.786 116.021 119.078 73.4922C116.655 51.6107 99.9008 40.6715 83.6486 40.6715C72.0845 40.6715 63.6291 47.6036 60.7619 50.3177C60.1562 50.891 59.2379 50.891 58.6322 50.3177C55.7647 47.6036 47.3093 40.6715 35.7455 40.6715C19.4932 40.6715 2.73857 51.6107 0.316332 73.4922C-4.39169 116.021 44.8545 140.12 57.0184 145.396Z" fill="url(#paint2_linear_0_4)"/>
<path id="Vector_4" d="M65.0248 145.397C66.7377 146.14 68.6689 146.14 70.3819 145.397C82.5458 140.12 131.792 116.022 127.084 73.4922C124.662 51.6107 107.907 40.6715 91.655 40.6715C80.0909 40.6715 71.6355 47.6036 68.7682 50.3177C68.1626 50.891 67.2443 50.891 66.6386 50.3177C63.7711 47.6036 55.3157 40.6715 43.7519 40.6715C27.4996 40.6715 10.745 51.6107 8.32273 73.4922C3.61471 116.021 52.8609 140.12 65.0248 145.397Z" fill="url(#paint3_linear_0_4)"/>
<path id="Vector_5" d="M65.3975 137.047C66.8777 137.669 68.5325 137.669 70.0127 137.047C80.525 132.627 123.199 112.391 119.121 76.6692C117.024 58.2968 102.516 49.1121 88.4442 49.1121C79.3352 49.1121 72.4537 55.4536 69.4163 58.8572C68.4954 59.8891 66.915 59.8891 65.9941 58.8572C62.9567 55.4536 56.0752 49.1121 46.9662 49.1121C32.8939 49.1121 18.3866 58.2968 16.2891 76.6692C12.211 112.391 54.885 132.627 65.3975 137.047Z" fill="url(#paint4_linear_0_4)"/>
<path id="Vector_6" d="M63.9968 0.527768C63.8643 0.208088 63.5553 0 63.213 0H62.1066C61.7644 0 61.4554 0.208088 61.3228 0.527768L60.8426 1.68614L62.6598 1.64282L64.4771 1.68614L63.9968 0.527768Z" fill="url(#paint5_linear_0_4)"/>
<path id="Vector_7" d="M26.2937 28.8682C33.1558 28.8682 39.3723 30.3863 43.9402 32.8451C44.2837 33.03 44.6724 33.03 45.0159 32.8451C49.5838 30.3863 55.8003 28.8682 62.6624 28.8682C69.5245 28.8682 75.7409 30.3863 80.3088 32.8451C80.6524 33.03 81.041 33.03 81.3846 32.8451C85.9524 30.3863 92.1689 28.8682 99.031 28.8682C103.116 28.8682 106.973 29.4071 110.391 30.3611C111.412 30.6462 112.248 29.5498 111.74 28.608C103.13 12.6673 84.3989 1.61288 62.6624 1.61288C40.9259 1.61288 22.1948 12.6673 13.5849 28.6083C13.0764 29.5498 13.9128 30.6462 14.9342 30.3614C18.3518 29.4074 22.2082 28.8682 26.2937 28.8682Z" fill="url(#paint6_linear_0_4)"/>
<path id="Vector_8" d="M62.6629 1.61288C62.6629 1.61288 78.6843 7.19996 81.3851 32.8451Z" fill="url(#paint7_linear_0_4)"/>
<path id="Vector_9" d="M62.66 1.61288C62.66 1.61288 46.6386 7.19996 43.9376 32.8451C44.2811 33.03 44.67 33.03 45.0135 32.8451C49.5814 30.3861 55.7977 28.8682 62.6598 28.8682C69.5218 28.8682 75.7383 30.3861 80.3062 32.8451C80.6497 33.03 81.0386 33.03 81.3822 32.8451C78.6814 7.19996 62.66 1.61288 62.66 1.61288Z" fill="url(#paint8_linear_0_4)"/>
<path id="Vector_10" d="M76.0487 113.587H69.8048C69.5897 113.587 69.4 113.444 69.3373 113.236L61.6908 87.8387C61.5494 87.3694 60.8927 87.3715 60.7548 87.842L58.3019 96.1998C58.2401 96.4099 58.0497 96.5539 57.8333 96.5539H41.857C41.5871 96.5539 41.3682 96.332 41.3682 96.0585V89.7693C41.3682 89.4957 41.5871 89.2739 41.857 89.2739H52.4751C52.6915 89.2739 52.8819 89.1299 52.9437 88.9196L57.4986 73.3949C57.5602 73.1848 57.7508 73.0406 57.9672 73.0406H64.3842C64.5993 73.0406 64.7891 73.1831 64.8517 73.3914L72.5889 99.0901C72.7282 99.5529 73.3725 99.5594 73.5211 99.0995L76.5833 89.6148C76.649 89.4113 76.8366 89.2734 77.048 89.2734H93.2998C93.5697 89.2734 93.7886 89.4953 93.7886 89.7688V96.0581C93.7886 96.3316 93.5697 96.5534 93.2998 96.5534H82.257C82.0456 96.5534 81.8582 96.6911 81.7923 96.8948L76.5134 113.245C76.4477 113.449 76.2601 113.587 76.0487 113.587Z" fill="url(#paint9_linear_0_4)"/>
</g>
<defs>
<radialGradient id="paint0_radial_0_4" cx="0" cy="0" r="1" gradientUnits="userSpaceOnUse" gradientTransform="translate(60.4186 157.757) scale(50.8588 6.11682)">
<stop stop-opacity="0.7"/>
<stop offset="1" stop-color="#414042" stop-opacity="0"/>
</radialGradient>
<linearGradient id="paint1_linear_0_4" x1="59.6969" y1="161.559" x2="59.6969" y2="5.75806" gradientUnits="userSpaceOnUse">
<stop offset="0.003" stop-color="#939393"/>
<stop offset="0.1044" stop-color="#A3A3A3"/>
<stop offset="0.3756" stop-color="#CBCBCB"/>
<stop offset="0.6245" stop-color="#E7E7E7"/>
<stop offset="0.8407" stop-color="#F8F8F8"/>
<stop offset="1" stop-color="white"/>
</linearGradient>
<linearGradient id="paint2_linear_0_4" x1="59.7148" y1="152.44" x2="59.7148" y2="71.9284" gradientUnits="userSpaceOnUse">
<stop stop-color="#606060"/>
<stop offset="0.2424" stop-color="#666666"/>
<stop offset="0.5713" stop-color="#777777"/>
<stop offset="0.9483" stop-color="#939393"/>
<stop offset="0.997" stop-color="#989898"/>
</linearGradient>
<linearGradient id="paint3_linear_0_4" x1="67.7035" y1="202.955" x2="67.7035" y2="2.64681" gradientUnits="userSpaceOnUse">
<stop offset="0.003" stop-color="#939393"/>
<stop offset="0.1044" stop-color="#A3A3A3"/>
<stop offset="0.3756" stop-color="#CBCBCB"/>
<stop offset="0.6245" stop-color="#E7E7E7"/>
<stop offset="0.8407" stop-color="#F8F8F8"/>
<stop offset="1" stop-color="white"/>
</linearGradient>
<linearGradient id="paint4_linear_0_4" x1="16.0151" y1="93.3127" x2="119.395" y2="93.3127" gradientUnits="userSpaceOnUse">
<stop stop-color="white" stop-opacity="0.7"/>
<stop offset="0.2574" stop-color="white" stop-opacity="0.6759"/>
<stop offset="0.6065" stop-color="white" stop-opacity="0.6081"/>
<stop offset="0.997" stop-color="white" stop-opacity="0.5"/>
</linearGradient>
<linearGradient id="paint5_linear_0_4" x1="62.6601" y1="1.52269" x2="62.6601" y2="0.011378" gradientUnits="userSpaceOnUse">
<stop stop-color="#414042"/>
<stop offset="0.1519" stop-color="#4F4E51"/>
<stop offset="0.489" stop-color="#696A6D"/>
<stop offset="0.7832" stop-color="#7A7B7E"/>
<stop offset="1" stop-color="#808285"/>
</linearGradient>
<linearGradient id="paint6_linear_0_4" x1="62.6624" y1="31.9574" x2="62.6624" y2="1.77611" gradientUnits="userSpaceOnUse">
<stop stop-color="#606060"/>
<stop offset="0.2424" stop-color="#666666"/>
<stop offset="0.5713" stop-color="#777777"/>
<stop offset="0.9483" stop-color="#939393"/>
<stop offset="0.997" stop-color="#989898"/>
</linearGradient>
<linearGradient id="paint7_linear_0_4" x1="72.0241" y1="31.8232" x2="72.0241" y2="1.77524" gradientUnits="userSpaceOnUse">
<stop stop-color="#606060"/>
<stop offset="0.2424" stop-color="#666666"/>
<stop offset="0.5713" stop-color="#777777"/>
<stop offset="0.9483" stop-color="#939393"/>
<stop offset="0.997" stop-color="#989898"/>
</linearGradient>
<linearGradient id="paint8_linear_0_4" x1="62.66" y1="29.941" x2="62.66" y2="1.82512" gradientUnits="userSpaceOnUse">
<stop stop-color="#414042"/>
<stop offset="0.1519" stop-color="#4F4E51"/>
<stop offset="0.489" stop-color="#696A6D"/>
<stop offset="0.7832" stop-color="#7A7B7E"/>
<stop offset="1" stop-color="#808285"/>
</linearGradient>
<linearGradient id="paint9_linear_0_4" x1="67.5782" y1="115.412" x2="67.5782" y2="70.9058" gradientUnits="userSpaceOnUse">
<stop stop-color="#7C47E1"/>
<stop offset="0.9994" stop-color="#D0BDF4"/>
</linearGradient>
</defs>
</svg>
