<svg width="17" height="17" viewBox="0 0 17 17" fill="none" xmlns="http://www.w3.org/2000/svg">
<path d="M6.36111 1.30583C7.00543 -0.435408 9.4682 -0.435408 10.1125 1.30583L11.1588 4.13324C11.3613 4.68068 11.7929 5.1123 12.3404 5.31488L15.1678 6.36111C16.909 7.00543 16.909 9.4682 15.1678 10.1125L12.3404 11.1588C11.793 11.3613 11.3613 11.7929 11.1588 12.3404L10.1125 15.1678C9.4682 16.909 7.00543 16.909 6.36111 15.1678L5.31488 12.3404C5.1123 11.793 4.68068 11.3613 4.13324 11.1588L1.30583 10.1125C-0.435408 9.4682 -0.435408 7.00543 1.30583 6.36111L4.13324 5.31488C4.68068 5.1123 5.1123 4.68068 5.31488 4.13324L6.36111 1.30583Z" fill="#CCCBCD"/>
</svg>
